<svg width="96" height="96" viewBox="0 0 96 96" fill="none" xmlns="http://www.w3.org/2000/svg">
<g clip-path="url(#clip0)">
<path d="M2.0625 53.5173H28.8933V64.4414H2.0625V53.5173Z" fill="#36CBBA"/>
<path d="M83.6433 53.5173V64.4414H42.0322C41.4412 63.6372 41.0933 62.6433 41.0933 61.5696V53.5173H83.6433Z" fill="#36CBBA"/>
<path d="M83.6433 23.1599V53.5151H41.0933V45.5962C41.0933 43.9102 40.4106 42.386 39.3069 41.2822C38.2024 40.1777 36.676 39.4951 34.9922 39.4951C31.623 39.4951 28.8933 42.1948 28.8933 45.5962V53.5151H2.0625V12.5186H72.999C72.999 18.3948 77.7642 23.1599 83.6433 23.1599Z" fill="#36CBBA"/>
<path d="M94.2861 12.5178C94.2861 18.3955 89.521 23.1606 83.6433 23.1606C77.7649 23.1606 73.0005 18.3955 73.0005 12.5178C73.0005 6.64014 77.7649 1.875 83.6433 1.875C89.521 1.875 94.2861 6.64014 94.2861 12.5178Z" fill="#36CBBA"/>
<path d="M61.5286 33.1077C61.5286 41.8894 57.7742 49.5359 52.2231 53.5151H41.0933V45.5962C41.0933 43.9102 40.4099 42.3853 39.3062 41.2815C38.2024 40.1777 36.676 39.4951 34.9922 39.4951C31.623 39.4951 28.8933 42.1948 28.8933 45.5962V46.8772C26.7041 43.0195 25.4128 38.2581 25.4128 33.1077C25.4128 24.1912 29.2859 16.4436 34.9775 12.5186H51.9646C57.6562 16.4436 61.5286 24.1912 61.5286 33.1077Z" fill="#36CBBA"/>
<path d="M83.6433 45.3787V53.5151H75.5061C75.5061 49.0217 79.1492 45.3787 83.6433 45.3787Z" fill="#36CBBA"/>
<path d="M10.199 53.5151H2.0625V45.3787C6.55664 45.3787 10.199 49.0217 10.199 53.5151Z" fill="#36CBBA"/>
<path d="M2.0625 20.655V12.5186H10.199C10.199 17.0127 6.55664 20.655 2.0625 20.655Z" fill="#36CBBA"/>
<path d="M68.354 64.4414C68.2156 65.3936 67.9219 66.3311 67.467 67.2158L57.2109 82.9373C56.5686 84.189 56.2339 85.5769 56.2339 86.9839V94.125H28.8926V45.5962C28.8926 42.1948 31.6223 39.4951 34.9922 39.4951C36.676 39.4951 38.2024 40.1777 39.3062 41.2815C40.4099 42.3853 41.0925 43.9102 41.0925 45.5962V61.5696C41.0925 62.6433 41.4412 63.6372 42.0322 64.4414C42.9155 65.6477 44.3423 66.4299 45.9536 66.4299C47.2947 66.4299 48.509 65.8857 49.3887 65.0061C49.5645 64.8303 49.7249 64.6414 49.8728 64.4414H68.354Z" fill="#36CBBA"/>
<path d="M96.1611 12.5178C96.1611 5.61548 90.5449 0 83.6433 0C77.3774 0 72.1736 4.62744 71.2661 10.6436H2.0625C1.02686 10.6436 0.1875 11.4829 0.1875 12.5186V53.5151V53.5166V64.4414C0.1875 65.4771 1.02686 66.3164 2.0625 66.3164H27.0183V72.8496C27.0183 73.8853 27.8577 74.7246 28.8933 74.7246C29.9282 74.7246 30.7683 73.8853 30.7683 72.8496V45.5962C30.7683 43.2261 32.6235 41.3701 34.9922 41.3701C36.1208 41.3701 37.1829 41.8096 37.9805 42.6072C38.7788 43.4055 39.2183 44.4668 39.2183 45.5962V61.5696C39.2183 61.7585 39.2271 61.9453 39.2417 62.1313C39.3435 63.3706 39.78 64.5425 40.519 65.5488L40.5205 65.551L40.5212 65.5518L40.5234 65.554C41.7869 67.2766 43.8157 68.3057 45.9536 68.3057C47.7517 68.3057 49.4421 67.6047 50.7151 66.3318L50.7305 66.3164H65.8154L55.6406 81.9126C55.6047 81.9675 55.5725 82.0239 55.5425 82.0818C54.7683 83.5913 54.3589 85.2861 54.3589 86.9839V94.125C54.3589 95.1606 55.199 96 56.2339 96C57.2695 96 58.1089 95.1606 58.1089 94.125V86.9839C58.1089 85.9094 58.3608 84.8364 58.8384 83.8748L69.0374 68.2405C69.0725 68.1863 69.1055 68.1306 69.1348 68.0728C69.4255 67.5073 69.6621 66.9199 69.8474 66.3164H83.6433C84.6782 66.3164 85.5183 65.4771 85.5183 64.4414V53.5173V53.5151V24.895C91.5337 23.9875 96.1611 18.783 96.1611 12.5178ZM77.6169 23.4858C78.7332 24.1018 79.9446 24.5449 81.1948 24.7939C81.3303 24.8203 81.4666 24.8445 81.6028 24.8665C81.6555 24.8752 81.7083 24.8855 81.761 24.8936C81.7632 24.8943 81.7654 24.8943 81.7676 24.895V43.6824C77.7488 44.447 74.5745 47.6213 73.8098 51.6401H56.9919C61.0232 46.927 63.4036 40.2217 63.4036 33.1077C63.4036 25.8757 60.9675 19.1089 56.8403 14.3936H71.2639C71.2947 14.5979 71.3328 14.8008 71.373 15.0022C71.937 17.7927 73.4758 20.3452 75.6694 22.1587C76.2766 22.6604 76.927 23.105 77.6169 23.4858ZM81.7683 57.1033H42.9683V55.3923H81.7683V57.1033ZM77.6682 51.6401C78.2805 49.6934 79.8208 48.1531 81.7683 47.5408V51.6401H77.6682ZM3.9375 51.6401V47.5408C5.88501 48.1531 7.42529 49.6934 8.0376 51.6401H3.9375ZM3.9375 55.3923H27.0183V57.1033H3.9375V55.3923ZM27.0183 47.354V51.6401H11.8953C11.1306 47.6213 7.95703 44.4478 3.9375 43.6824V22.3513C7.95703 21.5867 11.1306 18.4124 11.8953 14.3936H30.1018C25.9746 19.1089 23.5386 25.8757 23.5386 33.1077C23.5378 38.2441 24.7427 43.1565 27.0183 47.354ZM3.9375 14.3936H8.0376C7.42529 16.3411 5.88501 17.8813 3.9375 18.4937V14.3936ZM3.9375 62.5664V60.8533H27.0183V62.5664H3.9375ZM34.9922 37.6201C32.5342 37.6201 30.1714 38.7927 28.6729 40.7395C28.6128 40.8179 28.5542 40.897 28.4971 40.9768C28.478 41.0046 28.4568 41.0303 28.4377 41.0581C27.6797 38.5547 27.2878 35.8718 27.2878 33.1077C27.2878 25.3154 30.4512 18.208 35.5789 14.3936H51.3633C56.491 18.208 59.6536 25.3154 59.6536 33.1077C59.6536 40.7483 56.5825 47.7847 51.6021 51.6401H42.9683V46.3228C43.1821 46.4077 43.4143 46.4553 43.6582 46.4553C44.6931 46.4553 45.5332 45.616 45.5332 44.5803V43.3535C47.9011 43.2671 49.801 41.3152 49.801 38.9268V35.4763C49.801 33.033 47.8132 31.0452 45.3699 31.0452H41.9465C41.5708 31.0452 41.2654 30.7397 41.2654 30.364V27.1069C41.2654 26.7312 41.5708 26.4258 41.9465 26.4258H45.3699C45.7456 26.4258 46.051 26.7312 46.051 27.1069C46.051 28.1426 46.8911 28.9819 47.926 28.9819C48.9617 28.9819 49.801 28.1426 49.801 27.1069C49.801 24.7185 47.9011 22.7666 45.5332 22.6802V21.4534C45.5332 20.4177 44.6938 19.5784 43.6589 19.5784C42.624 19.5784 41.7832 20.4177 41.7832 21.4534V22.6802C39.416 22.7666 37.5161 24.7185 37.5154 27.1069V30.3647C37.5154 32.8081 39.5032 34.7952 41.9465 34.7952H45.3699C45.7456 34.7952 46.051 35.1013 46.051 35.4771V38.9268C46.051 39.3025 45.7456 39.6079 45.3699 39.6079H43.6589H43.6575H41.9465C41.5708 39.6079 41.2654 39.3025 41.2654 38.9282V38.6125C41.2661 37.5769 40.4268 36.7368 39.3918 36.7361H39.3904C38.5488 36.7361 37.8362 37.2913 37.5996 38.0552C36.8943 37.812 36.1523 37.667 35.3899 37.6296C35.2581 37.623 35.1255 37.6201 34.9922 37.6201ZM68.354 62.5664H43.1396C43.136 62.5554 43.1316 62.5444 43.1279 62.5334C43.1125 62.4895 43.0994 62.4441 43.0869 62.3994C43.0093 62.1306 42.9683 61.8494 42.9683 61.5696V60.8533H81.7683V62.5664H68.354ZM83.6492 21.2856C83.647 21.2856 83.6433 21.2849 83.6433 21.2849C81.8298 21.2849 80.1438 20.7319 78.7441 19.7856C76.4114 18.2087 74.8755 15.5391 74.8755 12.5178C74.8755 7.68311 78.8086 3.75 83.6433 3.75C88.4773 3.75 92.4111 7.68311 92.4111 12.5178C92.4111 17.3503 88.481 21.282 83.6492 21.2856Z" fill="#172A3A"/>
<path d="M87.7134 10.2686H85.5183V8.07349C85.5183 7.03784 84.6782 6.19849 83.6433 6.19849C82.6077 6.19849 81.7683 7.03784 81.7683 8.07349V10.2686H79.5725C78.5369 10.2686 77.6975 11.1079 77.6975 12.1436C77.6975 13.1792 78.5369 14.0186 79.5725 14.0186H81.7683V16.2144C81.7683 17.25 82.6077 18.0894 83.6433 18.0894C84.6782 18.0894 85.5183 17.25 85.5183 16.2144V14.0186H87.7134C88.749 14.0186 89.5884 13.1792 89.5884 12.1436C89.5884 11.1079 88.749 10.2686 87.7134 10.2686Z" fill="#172A3A"/>
<path d="M28.8933 86.2676C27.8577 86.2676 27.0183 87.1069 27.0183 88.1426V94.125C27.0183 95.1606 27.8577 96 28.8933 96C29.9282 96 30.7683 95.1606 30.7683 94.125V88.1426C30.7683 87.1069 29.9282 86.2676 28.8933 86.2676Z" fill="#172A3A"/>
<path d="M30.624 79.6896C30.3215 78.9506 29.554 78.4789 28.7586 78.5368C27.9815 78.5932 27.3054 79.1425 27.0908 79.8918C26.874 80.6454 27.1655 81.4731 27.802 81.9301C28.4282 82.3805 29.2925 82.3937 29.9341 81.966C30.6687 81.476 30.9631 80.5033 30.624 79.6896Z" fill="#172A3A"/>
</g>
<defs>
<clipPath id="clip0">
<rect width="96" height="96" fill="white"/>
</clipPath>
</defs>
</svg>
