<svg width="96" height="96" viewBox="0 0 96 96" fill="none" xmlns="http://www.w3.org/2000/svg">
<path d="M59.0625 17.0625H36.5625C35.0092 17.0625 33.75 18.3217 33.75 19.875C33.75 21.4283 35.0092 22.6875 36.5625 22.6875H59.0625C60.6157 22.6875 61.875 21.4283 61.875 19.875C61.875 18.3217 60.6157 17.0625 59.0625 17.0625Z" fill="#36CBBA"/>
<path d="M59.0625 28.3125H36.5625C35.0092 28.3125 33.75 29.5717 33.75 31.125C33.75 32.6783 35.0092 33.9375 36.5625 33.9375H59.0625C60.6157 33.9375 61.875 32.6783 61.875 31.125C61.875 29.5717 60.6157 28.3125 59.0625 28.3125Z" fill="#36CBBA"/>
<path d="M59.0625 39.5625H14.0625C12.5092 39.5625 11.25 40.8217 11.25 42.375C11.25 43.9283 12.5092 45.1875 14.0625 45.1875H59.0625C60.6157 45.1875 61.875 43.9283 61.875 42.375C61.875 40.8217 60.6157 39.5625 59.0625 39.5625Z" fill="#36CBBA"/>
<path d="M48.8666 50.8125H14.0625C12.5092 50.8125 11.25 52.0717 11.25 53.625C11.25 55.1783 12.5092 56.4375 14.0625 56.4375H48.8666C50.4199 56.4375 51.6791 55.1783 51.6791 53.625C51.6791 52.0717 50.4199 50.8125 48.8666 50.8125Z" fill="#36CBBA"/>
<path d="M73.3125 50.8125V8.4375C73.3125 3.774 69.357 0 64.6875 0H25.3121C24.5991 0 23.8656 0.282 23.3156 0.832125L0.815625 23.5196C0.298687 24.0407 0 24.7654 0 25.5V87.5625C0 92.2149 3.78506 96 8.4375 96C14.3711 96 16.3414 96 16.3329 96C24.9585 96 41.9314 96 73.3125 96C85.7312 96 96 85.7749 96 73.3125C96 60.906 85.8225 50.8125 73.3125 50.8125ZM22.5 9.64256V22.6875H9.56287L22.5 9.64256ZM8.4375 90.375C6.88669 90.375 5.625 89.1133 5.625 87.5625V28.3125H25.3125C26.8657 28.3125 28.125 27.0532 28.125 25.5V5.625H64.6875C66.2856 5.625 67.6875 6.93919 67.6875 8.4375V51.5128C61.7179 53.0286 56.6893 56.8988 53.6706 62.0625H14.0625C12.5092 62.0625 11.25 63.3218 11.25 64.875C11.25 66.4283 12.5092 67.6875 14.0625 67.6875H51.3428C50.8744 69.486 50.625 71.3709 50.625 73.3125H14.0625C12.5092 73.3125 11.25 74.5717 11.25 76.125C11.25 77.6783 12.5092 78.9375 14.0625 78.9375H51.3384C52.4753 83.3357 54.9332 87.2998 58.4413 90.375H8.4375ZM73.3125 90.375C64.0637 90.375 56.25 82.5613 56.25 73.3125C56.25 64.0076 63.9041 56.4375 73.3125 56.4375C82.7209 56.4375 90.375 64.0076 90.375 73.3125C90.375 82.5613 82.5613 90.375 73.3125 90.375Z" fill="#36CBBA"/>
<path d="M83.9426 68.5278C82.8536 67.4204 81.0728 67.4056 79.9652 68.4948L70.4841 77.8207L66.6433 74.1039C65.5271 73.0237 63.7466 73.0529 62.6665 74.1691C61.5863 75.2853 61.6155 77.0658 62.7317 78.146L68.5442 83.771C69.6405 84.8321 71.3837 84.8257 72.4723 83.7551L83.9098 72.5051C85.0172 71.4159 85.0318 69.6352 83.9426 68.5278Z" fill="#36CBBA"/>
</svg>
