<svg width="96" height="96" viewBox="0 0 96 96" fill="none" xmlns="http://www.w3.org/2000/svg">
<g clip-path="url(#clip0)">
<path d="M42.9157 4.79337C44.4244 6.302 46.8703 6.302 48.3789 4.79337C50.9426 2.22968 55.0991 2.22968 57.6628 4.79337C59.1714 6.302 61.6174 6.302 63.126 4.79337L63.1491 4.77031C64.2744 3.64493 66.1462 4.81831 65.6239 6.32168L61.44 18.3626H44.6462L40.4421 6.34775C39.9159 4.84381 41.7892 3.66668 42.9157 4.79337Z" fill="#36CBBA"/>
<path d="M74.9329 32.1487L61.1468 18.3625H44.9389L31.1528 32.1487C19.0631 44.2383 19.0631 63.8392 31.1528 75.9288C43.2422 88.0184 62.8433 88.0184 74.9329 75.9288C87.0225 63.8392 87.0225 44.2381 74.9329 32.1487Z" fill="#36CBBA"/>
<path d="M18.375 95.1212H54.7933C62.0243 95.1212 68.9702 92.3019 74.1555 87.2623L92.5153 69.4189C95.5526 66.4669 94.0684 61.3207 89.9254 60.4399C88.2793 60.0898 86.5648 60.543 85.3067 61.6605L66.9114 77.9981C63.8132 80.7497 59.8134 82.2696 55.6699 82.2696L36.4725 76.4271L54.0574 82.0189C56.391 82.761 58.9298 81.816 60.2104 79.7287C61.8624 77.0361 60.8209 73.5052 57.9716 72.1406L44.7351 65.8009C39.3694 63.231 33.1928 62.9379 27.6079 64.9886L18.4123 68.3649L18.375 95.1212Z" fill="#36CBBA"/>
<path d="M14.8749 65.8711H5.37506C3.44212 65.8711 1.875 67.438 1.875 69.3712V91.6212C1.875 93.5542 3.44194 95.1213 5.37506 95.1213H14.8751C16.8081 95.1213 18.3752 93.5543 18.3752 91.6212V69.3712C18.375 67.438 16.8081 65.8711 14.8749 65.8711Z" fill="#36CBBA"/>
<path d="M53.0428 41.6735C54.4045 41.6735 55.512 42.601 55.512 43.741C55.512 44.7764 56.3516 45.616 57.387 45.616C58.4224 45.616 59.262 44.7764 59.262 43.741C59.262 41.1443 57.4335 38.9399 54.9178 38.1942V37.9336C54.9178 36.8982 54.0782 36.0586 53.0428 36.0586C52.0074 36.0586 51.1678 36.8982 51.1678 37.9336V38.1942C48.6521 38.9401 46.8238 41.1443 46.8238 43.741C46.8238 46.9488 49.6136 49.5584 53.0428 49.5584C54.4045 49.5584 55.512 50.486 55.512 51.626C55.512 52.766 54.4045 53.6934 53.0428 53.6934C51.6814 53.6934 50.5738 52.766 50.5738 51.626C50.5738 50.5906 49.7342 49.751 48.6988 49.751C47.6634 49.751 46.8238 50.5906 46.8238 51.626C46.8238 54.2227 48.6521 56.4269 51.1678 57.1726V57.4332C51.1678 58.4686 52.0074 59.3082 53.0428 59.3082C54.0782 59.3082 54.9178 58.4686 54.9178 57.4332V57.1726C57.4335 56.4269 59.262 54.2227 59.262 51.626C59.262 48.4182 56.472 45.8084 53.0428 45.8084C51.6814 45.8084 50.5738 44.881 50.5738 43.741C50.5738 42.601 51.6814 41.6735 53.0428 41.6735Z" fill="#172A3A"/>
<path d="M95.7146 63.6332C94.9794 61.084 92.9106 59.1578 90.3156 58.6058C88.6538 58.252 86.9254 58.5101 85.4494 59.2946C86.304 53.98 85.8551 48.4823 84.0966 43.3577C83.7604 42.3782 82.6937 41.8575 81.7144 42.1928C80.7349 42.529 80.2134 43.5955 80.5494 44.575C82.6266 50.6269 82.6434 57.2659 80.6085 63.3251L65.6664 76.5958C64.7445 77.4145 63.7335 78.1086 62.6589 78.6722C62.9627 77.4431 62.9421 76.1417 62.5772 74.9053C62.001 72.9527 60.6174 71.3286 58.7814 70.4492L45.5447 64.1093C39.7577 61.3375 32.9844 61.0168 26.9616 63.228L25.6161 63.7221C21.8814 53.172 24.4809 41.4718 32.4786 33.4744L45.7157 20.2375H60.3701L71.5858 31.4531C72.3182 32.1851 73.5051 32.1851 74.2376 31.4531C74.9698 30.721 74.9698 29.5337 74.2376 28.8013L63.5213 18.0857L67.3952 6.93733C67.9146 5.44277 67.341 3.81227 66.0004 2.97189C64.6601 2.1317 62.9423 2.32652 61.8234 3.44477L61.8004 3.46783C61.0254 4.24314 59.7639 4.24314 58.989 3.46783C55.6982 0.177391 50.3441 0.177391 47.0533 3.46783C46.6779 3.84339 46.1786 4.05002 45.6476 4.05002C45.1166 4.05002 44.6173 3.8432 44.2419 3.46783C43.122 2.34789 41.4032 2.15402 40.0618 2.99683C38.7206 3.83945 38.1493 5.4722 38.6726 6.96733L42.5634 18.0868L29.8269 30.8231C25.1134 35.5369 21.9801 41.4799 20.7662 48.0096C19.7014 53.7358 20.1626 59.5748 22.0929 65.0162L19.137 66.1015C18.1534 64.8227 16.6093 63.9962 14.8751 63.9962H5.37506C2.41125 63.9962 0 66.4075 0 69.3713V91.6211C0 94.585 2.41125 96.9962 5.37506 96.9962H54.7933C62.5554 96.9962 69.8959 94.0168 75.4622 88.6069L93.822 70.7635C95.7246 68.9145 96.4496 66.1825 95.7146 63.6332ZM45.6474 7.80001C47.1801 7.80001 48.621 7.2032 49.7049 6.11945C51.5334 4.29095 54.5087 4.29095 56.3372 6.11945C57.4209 7.2032 58.8621 7.80001 60.3947 7.80001C61.4829 7.80001 62.5247 7.49927 63.4254 6.93677L60.1067 16.4876H45.9769L42.6396 6.9512C43.5353 7.50433 44.5684 7.80001 45.6474 7.80001ZM3.75 91.6211V69.3713C3.75 68.4752 4.479 67.7462 5.37506 67.7462H14.8749C15.771 67.7462 16.5 68.4752 16.5 69.3713V91.6211C16.5 92.5172 15.771 93.2462 14.8749 93.2462H5.37506C4.479 93.2462 3.75 92.5172 3.75 91.6211ZM91.2084 68.0743L72.8486 85.9178C67.986 90.6435 61.5739 93.2462 54.7933 93.2462H19.9982C20.1613 92.7332 20.25 92.1874 20.25 91.6211V69.6876L28.254 66.7487C33.3328 64.884 39.045 65.1544 43.9249 67.4918L57.1616 73.8317C58.0543 74.2592 58.7003 75.0176 58.9804 75.9671C59.2605 76.9166 59.1298 77.9046 58.6121 78.7483C57.7804 80.1038 56.1407 80.7135 54.6253 80.2322L37.0404 74.6402C36.0538 74.3267 34.9993 74.8719 34.6853 75.8589C34.3716 76.8458 34.917 77.9003 35.904 78.2141L53.4889 83.806C54.2132 84.0362 54.9506 84.1468 55.6787 84.1468C55.7664 84.1468 55.8538 84.1416 55.9412 84.1384C60.4508 84.0735 64.7792 82.3995 68.1563 79.4001L86.5517 63.0625C87.3611 62.3438 88.4769 62.049 89.5354 62.274C90.7922 62.5414 91.7552 63.438 92.1113 64.6727C92.4675 65.907 92.13 67.1788 91.2084 68.0743Z" fill="#172A3A"/>
<path d="M78.5135 38.3101C79.0067 38.3101 79.4904 38.1113 79.839 37.7607C80.1877 37.4119 80.3885 36.9299 80.3885 36.4351C80.3885 35.9419 80.1879 35.4601 79.839 35.1094C79.4904 34.7609 79.0067 34.5601 78.5135 34.5601C78.0202 34.5601 77.5385 34.7607 77.1879 35.1094C76.8392 35.4601 76.6385 35.9419 76.6385 36.4351C76.6385 36.9301 76.839 37.4119 77.1879 37.7607C77.5365 38.1113 78.0202 38.3101 78.5135 38.3101Z" fill="#172A3A"/>
</g>
<defs>
<clipPath id="clip0">
<rect width="96" height="96" fill="white"/>
</clipPath>
</defs>
</svg>
