<svg width="96" height="96" viewBox="0 0 96 96" fill="none" xmlns="http://www.w3.org/2000/svg">
<g clip-path="url(#clip0)">
<path d="M84.75 58.5998V22.5H73.0283C71.6083 9.87844 60.9951 0 48 0C35.0049 0 24.3917 9.87844 22.9718 22.5H11.25V56.625H0V96H39.375V79.125H56.9092C58.2887 88.6406 66.4209 96 76.3125 96C87.1671 96 96 87.1671 96 76.3125C96 68.4889 91.3772 61.7724 84.75 58.5998ZM48 28.125C43.3474 28.125 39.5625 24.3401 39.5625 19.6875C39.5625 16.0256 41.9209 12.933 45.1875 11.7681V8.4375H50.8125V11.7681C54.0791 12.933 56.4375 16.0256 56.4375 19.6875H50.8125C50.8125 18.1357 49.5491 16.875 48 16.875C46.4509 16.875 45.1875 18.1357 45.1875 19.6875C45.1875 21.2393 46.4509 22.5 48 22.5C52.6526 22.5 56.4375 26.2849 56.4375 30.9375C56.4375 34.5994 54.0791 37.692 50.8125 38.8569V42.1875H45.1875V38.8569C41.9209 37.692 39.5625 34.5994 39.5625 30.9375H45.1875C45.1875 32.4893 46.4509 33.75 48 33.75C49.5491 33.75 50.8125 32.4893 50.8125 30.9375C50.8125 29.3857 49.5491 28.125 48 28.125ZM16.875 85.9146L9.26156 78.3011L13.2386 74.3241L16.875 77.9604L26.1366 68.6989L30.1136 72.6759L16.875 85.9146ZM56.9092 73.5H39.375V56.625H16.875V28.125H22.9718C24.3917 40.7466 35.0049 50.625 48 50.625C60.9951 50.625 71.6083 40.7466 73.0283 28.125H79.125V56.9092C79.0373 56.8965 78.9496 56.8837 78.8619 56.8708C78.0233 56.7479 77.1843 56.625 76.3125 56.625C66.4209 56.625 58.2887 63.9844 56.9092 73.5ZM79.125 67.875V73.5H84.75V79.125H73.5V67.875H79.125Z" fill="#36CBBA"/>
<path d="M84.75 58.5998V22.5H73.0283C71.6083 9.87844 60.9951 0 48 0C35.0049 0 24.3917 9.87844 22.9718 22.5H11.25V56.625H0V96H39.375V79.125H56.9092C58.2887 88.6406 66.4209 96 76.3125 96C87.1671 96 96 87.1671 96 76.3125C96 68.4889 91.3772 61.7724 84.75 58.5998ZM48 28.125C43.3474 28.125 39.5625 24.3401 39.5625 19.6875C39.5625 16.0256 41.9209 12.933 45.1875 11.7681V8.4375H50.8125V11.7681C54.0791 12.933 56.4375 16.0256 56.4375 19.6875H50.8125C50.8125 18.1357 49.5491 16.875 48 16.875C46.4509 16.875 45.1875 18.1357 45.1875 19.6875C45.1875 21.2393 46.4509 22.5 48 22.5C52.6526 22.5 56.4375 26.2849 56.4375 30.9375C56.4375 34.5994 54.0791 37.692 50.8125 38.8569V42.1875H45.1875V38.8569C41.9209 37.692 39.5625 34.5994 39.5625 30.9375H45.1875C45.1875 32.4893 46.4509 33.75 48 33.75C49.5491 33.75 50.8125 32.4893 50.8125 30.9375C50.8125 29.3857 49.5491 28.125 48 28.125ZM16.875 85.9146L9.26156 78.3011L13.2386 74.3241L16.875 77.9604L26.1366 68.6989L30.1136 72.6759L16.875 85.9146ZM56.9092 73.5H39.375V56.625H16.875V28.125H22.9718C24.3917 40.7466 35.0049 50.625 48 50.625C60.9951 50.625 71.6083 40.7466 73.0283 28.125H79.125V56.9092C79.0373 56.8965 78.9496 56.8837 78.8619 56.8708C78.0233 56.7479 77.1843 56.625 76.3125 56.625C66.4209 56.625 58.2887 63.9844 56.9092 73.5ZM79.125 67.875V73.5H84.75V79.125H73.5V67.875H79.125Z" stroke="black"/>
</g>
<defs>
<clipPath id="clip0">
<rect width="96" height="96" fill="white"/>
</clipPath>
</defs>
</svg>
