<svg width="96" height="96" viewBox="0 0 96 96" fill="none" xmlns="http://www.w3.org/2000/svg">
<g clip-path="url(#clip0)">
<path d="M72.7742 69.6775C72.7742 83.3597 61.6822 94.4517 48 94.4517C34.3178 94.4517 23.2258 83.3597 23.2258 69.6775C23.2258 55.9953 34.3178 44.9033 48 44.9033C61.6822 44.9033 72.7742 55.9953 72.7742 69.6775Z" fill="#36CBBA"/>
<path d="M67.7434 54.7569C63.2208 48.7818 56.0716 44.9033 48 44.9033C34.317 44.9033 23.2258 55.9946 23.2258 69.6775C23.2258 70.0722 23.2659 70.4562 23.2848 70.8464L23.9161 71.2259H55.7419C59.1578 71.2259 61.9355 68.4482 61.9355 65.0324C61.9355 64.7602 61.9166 64.4918 61.8841 64.2302C63.7628 63.1664 65.0323 61.1478 65.0323 58.8388C65.0323 58.5666 65.0133 58.2982 64.9808 58.0366C66.254 57.3154 67.2354 56.1495 67.7434 54.7569Z" fill="#11B6A3"/>
<path d="M61.9355 49.5485H58.8387C60.5496 49.5485 61.9355 48.1626 61.9355 46.4517C61.9355 44.7408 60.5496 43.3549 58.8387 43.3549H41.8064V37.1614H26.3226L18.5806 41.8065H7.74193V63.484H17.0323L24.7742 68.1291H55.7419C57.4529 68.1291 58.8387 66.7433 58.8387 65.0323C58.8387 63.3214 57.4529 61.9356 55.7419 61.9356H58.8387C60.5496 61.9356 61.9355 60.5497 61.9355 58.8388C61.9355 57.1279 60.5496 55.742 58.8387 55.742H61.9355C63.6464 55.742 65.0323 54.3562 65.0323 52.6452C65.0323 50.9343 63.6464 49.5485 61.9355 49.5485Z" fill="#36CBBA"/>
<path d="M1.54838 38.7097H7.74193V66.5807H1.54838V38.7097Z" fill="#36CBBA"/>
<path d="M35.6129 61.9354V58.8386H55.7419C57.7613 58.8386 59.5403 59.8238 60.6721 61.3222C60.158 61.7033 59.5275 61.9354 58.8387 61.9354H35.6129Z" fill="#1BB5A3"/>
<path d="M35.6129 55.742V52.6453H58.8387C60.8581 52.6453 62.6371 53.6304 63.7689 55.1289C63.2548 55.5099 62.6242 55.742 61.9355 55.742H35.6129Z" fill="#1BB5A3"/>
<path d="M77.4194 7.74184L69.6774 3.09668H46.4516C45.5973 3.09668 44.9032 3.79073 44.9032 4.64507C44.9032 7.2111 46.9824 9.29023 49.5484 9.29023H37.1613C35.4504 9.29023 34.0645 10.6761 34.0645 12.387C34.0645 14.0979 35.4504 15.4838 37.1613 15.4838H34.0645C32.3536 15.4838 30.9678 16.8696 30.9678 18.5806C30.9678 20.2915 32.3536 21.6773 34.0645 21.6773H37.1613C35.4504 21.6773 34.0645 23.0632 34.0645 24.7741C34.0645 25.5717 34.3662 26.2991 34.8622 26.8487L37.1613 27.8709H55.7419V34.0644H71.2258L78.9678 29.4193H88.2581V7.74184H77.4194Z" fill="#36CBBA"/>
<path d="M35.6129 49.5484V46.4517H55.7419C57.7613 46.4517 59.5403 47.4368 60.6721 48.9353C60.158 49.3163 59.5275 49.5484 58.8387 49.5484H35.6129Z" fill="#1BB5A3"/>
<path d="M60.3871 15.4839V18.5807H37.1613C35.1419 18.5807 33.3629 17.5955 32.2311 16.097C32.7452 15.716 33.3758 15.4839 34.0645 15.4839H60.3871Z" fill="#1BB5A3"/>
<path d="M60.3871 9.29028V12.3871H40.2581C38.2387 12.3871 36.4597 11.4019 35.3279 9.90344C35.842 9.52239 36.4725 9.29028 37.1613 9.29028H60.3871Z" fill="#1BB5A3"/>
<path d="M60.3871 21.6775V24.7743H40.2581C38.2387 24.7743 36.4597 23.7891 35.3279 22.2906C35.842 21.9096 36.4725 21.6775 37.1613 21.6775H60.3871Z" fill="#1BB5A3"/>
<path d="M88.2581 4.64526H94.4516V32.5162H88.2581V4.64526Z" fill="#36CBBA"/>
<path d="M27.871 1.54834H7.74192V20.129H3.09676L10.8387 30.9677L18.5806 20.129H13.9355V7.74189H27.871V1.54834Z" fill="#36CBBA"/>
<path d="M71.2258 94.4516H88.2581V75.8709H92.9032L85.1613 65.0322L77.4194 75.8709H82.0645V88.258H71.2258V94.4516Z" fill="#36CBBA"/>
<path d="M55.7419 43.3548L63.4839 30.9677V30.7015C63.4839 28.2829 61.5234 26.3225 59.1048 26.3225C57.9436 26.3225 56.8291 26.7837 56.0081 27.6048L54.1936 29.4193C54.1936 29.4193 52.6452 26.3225 48 26.3225C43.3548 26.3225 41.8065 29.4193 41.8065 29.4193L39.9919 27.6048C39.1709 26.7837 38.0565 26.3225 36.8952 26.3225C34.4766 26.3225 32.5161 28.2829 32.5161 30.7015V30.9677L40.2581 43.3548H55.7419Z" fill="#36CBBA"/>
<path d="M38.3226 40.2581L40.2581 43.3548H55.7419L57.6774 40.2581H38.3226Z" fill="#11B6A3"/>
<path d="M86.7097 3.09673V6.1935H77.848L70.1061 1.54834H46.4516C44.7437 1.54834 43.3548 2.9372 43.3548 4.64511C43.3548 5.77843 43.683 6.82707 44.216 7.74189H37.1613C34.6006 7.74189 32.5161 9.82631 32.5161 12.387C32.5161 12.9987 32.6416 13.5793 32.8571 14.1154C30.8823 14.6491 29.4194 16.4395 29.4194 18.5806C29.4194 20.7217 30.8823 22.5121 32.8571 23.0458C32.6416 23.5819 32.5161 24.1625 32.5161 24.7741C32.5161 25.3427 32.6212 25.8984 32.8178 26.4201C31.6845 27.4989 30.9677 29.0148 30.9677 30.7031V31.4123L33.5935 35.6129H25.8939L18.152 40.258H9.29032V37.1612H0V68.129H9.29032V65.0322H16.6036L21.753 68.1214C21.722 68.6416 21.6774 69.1618 21.6774 69.6774C21.6774 84.192 33.4854 96 48 96C62.5146 96 74.3226 84.192 74.3226 69.6774C74.3226 62.448 71.3029 55.4939 66.0499 50.535C65.4579 49.3873 64.4131 48.5231 63.1414 48.1799C63.3584 47.6439 63.4839 47.0632 63.4839 46.4516C63.4839 43.8908 61.3994 41.8064 58.8387 41.8064H58.5355L62.4065 35.6129H71.6545L79.3964 30.9677H86.7097V34.0645H96V3.09673H86.7097ZM6.19355 65.0322H3.09677V40.258H6.19355V65.0322ZM48 92.9032C35.1933 92.9032 24.7742 82.4841 24.7742 69.6774H51.0968C52.8047 69.6774 54.1935 71.0662 54.1935 72.7741C54.1935 74.4821 52.8047 75.8709 51.0968 75.8709H44.9032C43.1953 75.8709 41.8064 74.4821 41.8064 72.7741H38.7097C38.7097 76.19 41.4874 78.9677 44.9032 78.9677H46.4516V82.0645H49.5484V78.9677H51.0968C54.5126 78.9677 57.2903 76.19 57.2903 72.7741C57.2903 71.6144 56.9493 70.5415 56.3936 69.6124C58.6452 69.2918 60.3871 67.3699 60.3871 65.0322C60.3871 64.4206 60.2616 63.8399 60.0461 63.3039C62.0209 62.7686 63.4839 60.9798 63.4839 58.8387C63.4839 58.227 63.3584 57.6464 63.1429 57.1103C64.3337 56.7868 65.3279 56.0095 65.935 54.9662C69.3122 59.0942 71.2258 64.2936 71.2258 69.6774C71.2258 82.4841 60.8067 92.9032 48 92.9032ZM60.3871 46.4516C60.3871 47.3044 59.693 48 58.8387 48H35.6129V51.0967H61.9355C62.7898 51.0967 63.4839 51.7923 63.4839 52.6451C63.4839 53.4979 62.7898 54.1935 61.9355 54.1935H35.6129V57.2903H58.8387C59.693 57.2903 60.3871 57.9858 60.3871 58.8387C60.3871 59.6915 59.693 60.3871 58.8387 60.3871H35.6129V63.4838H55.7419C56.5963 63.4838 57.2903 64.1794 57.2903 65.0322C57.2903 65.885 56.5963 66.5806 55.7419 66.5806H25.2029L17.4609 61.9354H9.29032V43.3548H19.0093L26.7513 38.7096H35.529L37.4645 41.8064H35.6129V44.9032H58.8387C59.693 44.9032 60.3871 45.5987 60.3871 46.4516ZM41.1162 41.8064L34.069 30.5307C34.159 29.0496 35.3914 27.8709 36.8952 27.8709C37.6399 27.8709 38.3687 28.1726 38.8972 28.7011L42.1935 31.9634L43.1817 30.133C43.2308 30.04 44.4405 27.8709 48 27.8709C51.5595 27.8709 52.7691 30.04 52.8077 30.1111L53.7679 32.033L57.1013 28.6996C57.6313 28.1726 58.3586 27.8709 59.1048 27.8709C60.6086 27.8709 61.8425 29.0496 61.9309 30.5307L54.8838 41.8064H41.1162ZM78.5391 27.8709L70.7971 32.5161H64.342L65.0323 31.4123V30.7031C65.0323 27.4324 62.3725 24.7741 59.1048 24.7741C57.5209 24.7741 56.033 25.3903 54.9133 26.5115L54.313 27.1103C53.1699 26.0178 51.1724 24.7741 48 24.7741C44.8276 24.7741 42.8301 26.0178 41.687 27.1103L41.0867 26.5115C39.967 25.3903 38.4806 24.7741 36.8952 24.7741C36.4627 24.7741 36.0446 24.8271 35.6394 24.9148C35.6348 24.8671 35.6129 24.8218 35.6129 24.7741C35.6129 23.9213 36.307 23.2258 37.1613 23.2258H60.3871V20.129H34.0645C33.2102 20.129 32.5161 19.4334 32.5161 18.5806C32.5161 17.7278 33.2102 17.0322 34.0645 17.0322H60.3871V13.9354H37.1613C36.307 13.9354 35.6129 13.2399 35.6129 12.387C35.6129 11.5342 36.307 10.8387 37.1613 10.8387H60.3871V7.74189H49.5484C47.8405 7.74189 46.4516 6.35303 46.4516 4.64511H69.2487L76.9907 9.29028H86.7097V27.8709H78.5391ZM92.9032 30.9677H89.8064V6.1935H92.9032V30.9677Z" fill="#172A3A"/>
<path d="M24.7742 0H27.871V3.09677H24.7742V0Z" fill="#172A3A"/>
<path d="M24.7742 6.1936H27.871V9.29038H24.7742V6.1936Z" fill="#172A3A"/>
<path d="M21.589 18.5806H15.4839V9.29032H21.6774V6.19355H12.3871V21.6774H15.5723L10.8387 28.3027L6.1051 21.6774H9.29033V3.09677H21.6774V0H6.19356V18.5806H0.0884666L10.8387 33.6328L21.589 18.5806Z" fill="#172A3A"/>
<path d="M71.2258 92.9033H74.3226V96.0001H71.2258V92.9033Z" fill="#172A3A"/>
<path d="M71.2258 86.7097H74.3226V89.8065H71.2258V86.7097Z" fill="#172A3A"/>
<path d="M74.411 77.4194H80.5161V86.7097H77.4194V89.8064H83.6129V74.3226H80.4277L85.1613 67.6973L89.8949 74.3226H86.7097V92.9032H77.4194V96H89.8064V77.4194H95.9115L85.1613 62.3672L74.411 77.4194Z" fill="#172A3A"/>
</g>
<defs>
<clipPath id="clip0">
<rect width="96" height="96" fill="white"/>
</clipPath>
</defs>
</svg>
