<svg width="96" height="96" viewBox="0 0 96 96" fill="none" xmlns="http://www.w3.org/2000/svg">
<path fill-rule="evenodd" clip-rule="evenodd" d="M72.4177 92.6593L92.6567 72.4449C94.3729 70.7308 94.3729 67.9234 92.6567 66.2092L89.3197 62.8817C87.6035 61.1674 84.798 61.1674 83.0818 62.8817L82.9916 62.9664L62.928 83.0059L62.8429 83.0961C61.1267 84.8102 61.1267 87.6124 62.8429 89.3265L66.1798 92.6593C66.5199 92.9991 66.9077 93.2751 67.3221 93.4819H71.2753C71.6899 93.2751 72.0724 92.9991 72.4177 92.6593Z" fill="#36CBBA"/>
<path fill-rule="evenodd" clip-rule="evenodd" d="M62.928 83.0057L82.9916 62.9665L74.2138 54.1992C61.0684 46.7535 50.4257 63.8209 53.3533 73.4425L62.928 83.0057Z" fill="#36CBBA"/>
<path fill-rule="evenodd" clip-rule="evenodd" d="M24.3898 93.4817H28.343C28.7576 93.2749 29.1401 92.9989 29.4855 92.6591L32.8224 89.3263C34.5386 87.6122 34.5386 84.81 32.8224 83.0959L32.732 83.0057L12.6684 62.9664L12.5833 62.8817C10.8671 61.1674 8.05628 61.1674 6.34009 62.8817L3.00859 66.2092C1.29222 67.9234 1.29222 70.7308 3.00859 72.4449L23.2421 92.6593C23.5875 92.9989 23.9752 93.2749 24.3898 93.4817Z" fill="#36CBBA"/>
<path fill-rule="evenodd" clip-rule="evenodd" d="M56.6051 71.7815L68.9959 59.4108L74.2138 54.1992L75.8557 52.5595C77.6674 50.7443 77.6674 47.7832 75.8557 45.9734C74.0439 44.1584 71.0736 44.1584 69.2618 45.9734L70.9142 44.3176C72.7313 42.508 72.7313 39.5414 70.9142 37.7317C69.1022 35.9167 66.132 35.9167 64.3202 37.7317L65.9726 36.0758C67.7899 34.2663 67.7899 31.2997 65.9726 29.4899C64.1608 27.6802 61.1906 27.6802 59.3786 29.4899L61.0365 27.8395C62.8483 26.0245 62.8483 23.0632 61.0365 21.2482C59.9366 20.1548 58.4171 19.7198 56.9876 19.9533C56.0524 20.102 55.1544 20.5317 54.4371 21.2482L47.8326 27.85L48.045 28.0623L48.0821 28.0996C49.8941 29.9092 49.8941 32.8758 48.0821 34.6855C46.2703 36.5005 43.3001 36.5005 41.4881 34.6855C43.3001 36.5005 43.3001 39.4617 41.4881 41.2767C39.6711 43.0865 36.7061 43.0865 34.8889 41.2767C36.7061 43.0865 36.7061 46.0531 34.8889 47.8629C33.0771 49.6724 30.1121 49.6724 28.2949 47.8629C30.1121 49.6724 30.1121 52.6392 28.2949 54.4488C26.4831 56.2638 23.5129 56.2638 21.7009 54.4488L21.4511 54.1992L12.6681 62.9665L32.7315 83.0058L41.1161 74.6313C43.4912 72.1743 49.0543 74.3236 53.3529 73.4425C54.5754 73.1932 55.6911 72.6942 56.6051 71.7815Z" fill="#36CBBA"/>
<path fill-rule="evenodd" clip-rule="evenodd" d="M41.4883 34.6855C43.3003 36.5005 46.2705 36.5005 48.0823 34.6855C49.8943 32.8758 49.8943 29.9091 48.0823 28.0996L48.0452 28.0623C45.245 27.8607 39.8891 23.0048 39.5703 19.5976C37.7529 17.7826 34.7882 17.7826 32.9711 19.5976C31.1591 21.4073 31.1591 24.374 32.9711 26.1835L34.6288 27.8393L41.4883 34.6855Z" fill="#36CBBA"/>
<path fill-rule="evenodd" clip-rule="evenodd" d="M34.8891 41.2767C36.7063 43.0865 39.6713 43.0865 41.4883 41.2767C43.3003 39.4617 43.3003 36.5005 41.4883 34.6855L34.6288 27.8395C32.8116 26.0245 29.8466 26.0245 28.0348 27.8395C26.2176 29.6491 26.2176 32.6105 28.0348 34.4255L29.6873 36.076L34.8891 41.2767Z" fill="#36CBBA"/>
<path fill-rule="evenodd" clip-rule="evenodd" d="M28.2951 47.8629C30.1123 49.6725 33.0773 49.6725 34.8891 47.8629C36.7063 46.0532 36.7063 43.0865 34.8891 41.2768L29.6873 36.0759C27.8754 34.2664 24.9053 34.2664 23.0933 36.0759C21.2762 37.8909 21.2762 40.8523 23.0933 42.6673L26.4036 45.9735L28.2951 47.8629Z" fill="#36CBBA"/>
<path fill-rule="evenodd" clip-rule="evenodd" d="M21.7011 54.4489C23.5131 56.2639 26.4832 56.2639 28.2951 54.4489C30.1123 52.6394 30.1123 49.6725 28.2951 47.863L26.4036 45.9736C24.5863 44.1586 21.6214 44.1586 19.8043 45.9736C17.9923 47.7833 17.9923 50.7445 19.8043 52.5597L21.4515 54.1994L21.7011 54.4489Z" fill="#36CBBA"/>
<path fill-rule="evenodd" clip-rule="evenodd" d="M47.8325 27.8501L54.437 21.2482C55.1544 20.5318 56.0523 20.102 56.9876 19.9534L44.2299 17.5387C41.7114 17.061 39.3256 17.0452 39.5701 19.5979C39.8889 23.0049 45.2448 27.8608 48.0449 28.0625L47.8325 27.8501Z" fill="#36CBBA"/>
<path d="M47.8325 12.1987C48.8754 12.1987 49.7208 11.3533 49.7208 10.3104V1.88831C49.7208 0.845438 48.8754 0 47.8325 0C46.7896 0 45.9442 0.845438 45.9442 1.88831V10.3104C45.9444 11.3533 46.7898 12.1987 47.8325 12.1987Z" fill="#36CBBA"/>
<path d="M93.99 64.8722L90.6542 61.5458C89.4675 60.3606 87.8859 59.7077 86.2007 59.7077C85.1231 59.7077 84.0887 59.9759 83.172 60.4782L76.8859 54.1995L77.1921 53.8937C79.7423 51.3385 79.7413 47.1863 77.1919 44.6397C76.2808 43.7269 75.144 43.1183 73.9048 42.8622C74.0754 42.2732 74.1653 41.6564 74.1653 41.025C74.1653 39.271 73.4839 37.6262 72.2505 36.3979C71.3393 35.4852 70.2026 34.8765 68.9634 34.6204C69.1341 34.0315 69.2239 33.4148 69.2239 32.7833C69.2239 31.029 68.5425 29.3845 67.3071 28.1543C66.3741 27.2224 65.2271 26.6325 64.0228 26.3815C64.6671 24.1602 64.1166 21.661 62.3691 19.9105C60.9146 18.462 58.9406 17.8395 57.0384 18.0413L44.5819 15.6835C42.6821 15.3231 40.3097 15.0848 38.8123 16.4507C38.7178 16.537 38.6214 16.6362 38.5264 16.7466C36.2044 15.9002 33.4963 16.4042 31.6367 18.2616C30.4031 19.4937 29.7236 21.1377 29.7236 22.8908C29.7236 23.5223 29.8131 24.139 29.9835 24.7281C28.7456 24.984 27.6103 25.5919 26.7023 26.5017C25.4663 27.7326 24.7847 29.3747 24.7834 31.1258C24.7828 31.7588 24.8726 32.3775 25.044 32.9682C23.8056 33.2235 22.6695 33.8303 21.7586 34.74C20.5226 35.9747 19.842 37.6197 19.842 39.3719C19.842 40.7142 20.2427 41.9925 20.9852 43.0725C20.0477 43.3904 19.1889 43.9193 18.4699 44.6376C15.918 47.1863 15.9171 51.3387 18.4716 53.8977L18.7766 54.2014L12.4898 60.4769C10.1533 59.3768 7.27463 59.7889 5.34657 61.7146L2.0087 65.043C0.821446 66.2288 0.167821 67.8105 0.167633 69.4967C0.167633 71.1831 0.821446 72.765 2.0087 73.951L6.17438 78.1116C6.9122 78.8487 8.10788 78.8479 8.84476 78.1101C9.58182 77.3723 9.58107 76.1766 8.84326 75.4397L4.67757 71.2791C4.2047 70.8068 3.94426 70.1738 3.94426 69.4969C3.94426 68.8202 4.2047 68.1874 4.67645 67.7162L8.01451 64.3875C8.84851 63.5543 10.125 63.4304 11.0944 64.0099C11.1626 64.1125 11.2416 64.2102 11.3319 64.3005C11.4936 64.4627 11.6783 64.587 11.8746 64.678L31.017 83.7923C31.1079 83.9905 31.2328 84.177 31.3958 84.3402C31.5544 84.4992 31.7353 84.6218 31.9273 84.7122C32.3321 85.1699 32.5558 85.7545 32.5558 86.3781C32.5558 87.055 32.2954 87.6878 31.8225 88.1601L28.4878 91.4909C27.5025 92.4719 25.8998 92.4717 24.9174 91.4939L20.7516 87.3278C20.0141 86.5904 18.8186 86.5904 18.0812 87.3276C17.3438 88.065 17.3436 89.2606 18.081 89.998L22.2497 94.167C23.4769 95.3888 25.0883 95.9997 26.7002 95.9997C28.3127 95.9997 29.9259 95.388 31.1544 94.165L34.4912 90.8322C35.6784 89.6462 36.3323 88.0645 36.3323 86.3779C36.3323 85.1744 35.9976 84.025 35.3751 83.0339L42.4506 75.967C42.4581 75.9593 42.4658 75.9516 42.4733 75.9441C43.2834 75.1065 45.5396 75.2633 47.7216 75.4148C49.2718 75.5224 51.0002 75.6424 52.6888 75.4478L60.4371 83.1869C59.9351 84.102 59.6672 85.1352 59.6672 86.211C59.6672 87.8957 60.321 89.4765 61.5083 90.6625L64.8452 93.9953C66.0317 95.1805 67.6133 95.8334 69.2985 95.8334C70.9836 95.8334 72.5651 95.1805 73.7518 93.9953L93.9908 73.7809C95.178 72.5952 95.8318 71.0134 95.8318 69.327C95.8322 67.6409 95.1784 66.0591 93.99 64.8722ZM43.8788 19.3941L52.0701 20.9445L47.1671 25.8456C46.4087 25.4811 45.3692 24.8012 44.2288 23.7104C42.6679 22.2171 41.5511 20.493 41.4497 19.4177L41.4495 19.416C41.4422 19.3388 41.4403 19.2765 41.4413 19.2295C41.6878 19.1695 42.3441 19.1029 43.8788 19.3941ZM34.3054 20.9337C35.262 19.978 36.7481 19.8677 37.8291 20.5997C38.4416 23.1681 40.6326 25.4959 41.6183 26.439C42.3488 27.138 44.6927 29.2337 47.0586 29.8097C47.3786 30.2685 47.5528 30.8155 47.5528 31.3926C47.5528 32.136 47.2669 32.8311 46.7458 33.3516C46.2263 33.8721 45.5301 34.1586 44.7853 34.1586C44.0404 34.1586 43.3442 33.8721 42.8222 33.3492L42.8211 33.348L34.3052 24.8475C33.786 24.3291 33.5001 23.634 33.5001 22.8908C33.5003 22.1474 33.7862 21.4523 34.3054 20.9337ZM29.3711 29.1737C29.8907 28.6534 30.5861 28.3667 31.3298 28.3667C32.0743 28.3667 32.772 28.654 33.2949 29.1764L40.1522 36.0199C41.232 37.1014 41.232 38.8613 40.1559 39.939C39.6336 40.4594 38.9349 40.7459 38.1889 40.7459C37.4428 40.7459 36.7442 40.4594 36.2241 39.9413L31.0217 34.74C31.0136 34.732 31.0048 34.7245 30.9966 34.7162L29.3691 33.0895C28.8469 32.5679 28.5594 31.8715 28.56 31.1286C28.5608 30.3882 28.8473 29.6954 29.3711 29.1737ZM24.4275 37.4121C24.9474 36.8929 25.6444 36.607 26.3903 36.607C27.1299 36.607 27.8209 36.8888 28.3386 37.399L33.5567 42.6147C34.077 43.1329 34.3637 43.8272 34.3637 44.5697C34.3637 45.312 34.077 46.0064 33.5546 46.5267C33.0349 47.0457 32.3387 47.3316 31.5941 47.3316C30.8484 47.3316 30.15 47.0449 29.6295 46.5267L27.7378 44.6372L27.7365 44.6359L24.4277 41.331C23.9061 40.81 23.6188 40.114 23.6188 39.3715C23.6188 38.6292 23.9061 37.933 24.4275 37.4121ZM21.1388 47.3097C21.6609 46.788 22.3588 46.5008 23.1038 46.5008C23.8483 46.5008 24.546 46.7879 25.0682 47.3091L26.9625 49.2012C27.4828 49.7194 27.7695 50.4137 27.7695 51.1562C27.7695 51.8987 27.4828 52.5929 26.9586 53.1152C26.439 53.6355 25.7428 53.9222 24.9981 53.9222C24.2531 53.9222 23.5569 53.6357 23.0336 53.1115L22.7964 52.8752C22.7933 52.872 22.7908 52.8687 22.7878 52.8657C22.7843 52.8623 22.7805 52.8593 22.7769 52.8559L21.1406 51.226C20.0608 50.1437 20.0599 48.387 21.1388 47.3097ZM59.6201 68.7704C58.8831 68.0324 57.6874 68.0318 56.9498 68.7687L55.2698 70.4464C53.6734 72.0428 50.7808 71.8418 47.9833 71.6477C44.9456 71.4366 41.8044 71.2187 39.7718 73.3056L32.8164 80.2525L15.4234 62.8849L21.5786 56.7407C22.596 57.3644 23.7699 57.6987 24.9983 57.6987C26.7529 57.6987 28.3986 57.0184 29.6276 55.7871C30.8649 54.5549 31.5465 52.9103 31.5465 51.156C31.5465 51.1397 31.5454 51.1236 31.5454 51.1073C31.5617 51.1075 31.578 51.1084 31.5943 51.1084C33.3467 51.1084 34.9909 50.4302 36.2216 49.201C37.4589 47.9687 38.1405 46.324 38.1405 44.5699C38.1405 44.5536 38.1394 44.5375 38.1394 44.5212C38.1559 44.5212 38.1724 44.5223 38.1891 44.5223C39.9409 44.5223 41.586 43.8449 42.825 42.6109C44.1113 41.3226 44.7474 39.6265 44.7353 37.9339C44.7521 37.9339 44.769 37.935 44.7859 37.935C46.5407 37.935 48.186 37.2548 49.4169 36.0216C50.6505 34.7895 51.33 33.1455 51.33 31.3924C51.33 30.1665 50.9966 28.9945 50.3751 27.979L55.77 22.5863C56.172 22.186 56.6678 21.9347 57.1873 21.831C57.2436 21.825 57.2991 21.816 57.354 21.8052C58.1876 21.6902 59.0631 21.9473 59.7006 22.5824C60.7804 23.664 60.7804 25.4239 59.7045 26.5017L58.0614 28.138C58.056 28.1434 58.0502 28.1483 58.0448 28.1539L56.1525 30.0432C55.4145 30.78 55.4138 31.9757 56.1508 32.7135C56.8881 33.4515 58.0836 33.4521 58.8212 32.7152L60.4708 31.0679L60.4719 31.0667L60.7213 30.8183C61.8041 29.7454 63.5584 29.7477 64.6401 30.8279C65.1606 31.3461 65.4473 32.0404 65.4473 32.7829C65.4473 33.5252 65.1606 34.2195 64.6359 34.7419L62.9835 36.3977L61.0907 38.283C60.3518 39.019 60.3493 40.2147 61.0853 40.9534C61.8212 41.6924 63.0167 41.6946 63.7556 40.9589L65.6565 39.0657C66.1761 38.5452 66.8723 38.2587 67.617 38.2587C68.3619 38.2587 69.0583 38.5452 69.5816 39.0694C70.1021 39.5879 70.3886 40.2822 70.3886 41.0245C70.3886 41.7668 70.1021 42.4611 69.5786 42.9824L66.2843 46.278C65.547 47.0157 65.5472 48.2112 66.2846 48.9484C66.6534 49.3171 67.1364 49.5012 67.6196 49.5012C68.103 49.5012 68.5864 49.3167 68.955 48.9479L70.5696 47.3327C70.5788 47.3239 70.5887 47.3162 70.5979 47.307C71.1174 46.7865 71.8136 46.5 72.5584 46.5C73.3031 46.5 73.9995 46.7865 74.5209 47.3089C75.5996 48.3865 75.5987 50.1434 74.5211 51.223L72.8796 52.8627L72.8777 52.8644L72.876 52.8662L70.2705 55.4685C69.5327 56.2056 69.5319 57.4011 70.2688 58.1391C70.6376 58.5083 71.1214 58.693 71.6049 58.693C72.0879 58.693 72.5708 58.5089 72.9394 58.1408L74.2138 56.8679L80.322 62.9689L62.9304 80.3393L56.6991 74.1154C57.1335 73.836 57.5492 73.5075 57.9394 73.1174L59.6184 71.4404C60.3564 70.7039 60.3572 69.5082 59.6201 68.7704ZM91.3223 71.1089L71.0833 91.3232C70.6099 91.7961 69.9761 92.0565 69.2989 92.0565C68.6216 92.0565 67.9879 91.7961 67.5143 91.323L64.1773 87.9902C63.7044 87.5181 63.444 86.8862 63.444 86.211C63.444 85.536 63.7044 84.9042 64.1773 84.4319L84.4163 64.2175C84.8899 63.7444 85.5236 63.484 86.2009 63.484C86.8781 63.484 87.5119 63.7444 87.9864 64.2186L91.3223 67.545C91.7951 68.0174 92.0556 68.65 92.0556 69.3269C92.0556 70.0039 91.7951 70.6367 91.3223 71.1089Z" fill="#172A3A"/>
<path d="M22.7583 10.6069C23.1269 10.9748 23.6096 11.1586 24.0922 11.1586C24.576 11.1586 25.0599 10.9737 25.4287 10.6041C26.1654 9.86593 26.1643 8.67043 25.4261 7.93374L18.5452 1.06656C17.8072 0.329681 16.6115 0.330806 15.8748 1.06918C15.1381 1.80737 15.1393 3.00287 15.8775 3.73956L22.7583 10.6069Z" fill="#36CBBA"/>
<path d="M71.5729 11.1587C72.0557 11.1587 72.5387 10.9746 72.9073 10.6065L79.7829 3.73917C80.5207 3.00229 80.5215 1.8066 79.7844 1.06879C79.0476 0.330791 77.8521 0.330229 77.1141 1.06729L70.2384 7.93467C69.5006 8.67154 69.4999 9.86723 70.2369 10.605C70.6057 10.974 71.0893 11.1587 71.5729 11.1587Z" fill="#36CBBA"/>
<path d="M11.7788 81.2259C11.0477 81.9695 11.0578 83.1652 11.8016 83.8963L11.8071 83.9015C12.174 84.2623 12.6505 84.4419 13.1267 84.4419C13.6155 84.4419 14.1043 84.2527 14.4746 83.876C15.2057 83.1324 15.1928 81.9341 14.4491 81.203C13.7055 80.472 12.51 80.4823 11.7788 81.2259Z" fill="black"/>
<path d="M64.2386 66.0502C64.5259 66.0502 64.8173 65.9848 65.0908 65.8469C66.0219 65.3773 66.396 64.2418 65.9265 63.3106C65.4568 62.3795 64.3211 62.0053 63.3902 62.4749L63.3797 62.4802C62.4486 62.9499 62.0798 64.0828 62.5493 65.0139C62.8808 65.6716 63.5475 66.0502 64.2386 66.0502Z" fill="black"/>
</svg>
