<svg width="68" height="67" viewBox="0 0 68 67" fill="none" xmlns="http://www.w3.org/2000/svg">
<circle cx="33.8211" cy="33.2392" r="33.2392" fill="#36CBBA"/>
<g clip-path="url(#clip0)">
<path d="M39.5546 31.6438L30.0577 28.8596C28.9585 28.5424 28.1935 27.5116 28.1935 26.3662C28.1935 24.9301 29.3542 23.7671 30.7875 23.7671H36.6176C37.6904 23.7671 38.7456 24.0931 39.6249 24.6922C40.1613 25.0534 40.8824 24.9653 41.3397 24.516L44.3998 21.5204C45.0241 20.9124 44.9362 19.8992 44.2415 19.3618C42.0871 17.6701 39.3963 16.7274 36.6352 16.7186V12.4895C36.6352 11.7141 36.002 11.0798 35.2282 11.0798H32.4143C31.6405 11.0798 31.0074 11.7141 31.0074 12.4895V16.7186H30.7875C25.1861 16.7186 20.6839 21.538 21.2027 27.2561C21.572 31.3178 24.6673 34.6218 28.5716 35.7671L37.5849 38.4103C38.684 38.7363 39.4491 39.7583 39.4491 40.9037C39.4491 42.3399 38.2883 43.5029 36.855 43.5029H31.025C29.9522 43.5029 28.8969 43.1769 28.0176 42.5777C27.4812 42.2165 26.7601 42.3046 26.3029 42.754L23.2428 45.7496C22.6184 46.3575 22.7064 47.3707 23.401 47.9082C25.5554 49.5998 28.2462 50.5425 31.0074 50.5514V54.7805C31.0074 55.5558 31.6405 56.1902 32.4143 56.1902H35.2282C36.002 56.1902 36.6352 55.5558 36.6352 54.7805V50.5337C40.7329 50.4544 44.5756 48.0139 45.9298 44.1284C47.8204 38.7011 44.646 33.1328 39.5546 31.6438Z" fill="white"/>
</g>
<defs>
<clipPath id="clip0">
<rect width="25.3251" height="45.1104" fill="white" transform="translate(21.1586 11.0798)"/>
</clipPath>
</defs>
</svg>
