<svg width="67" height="67" viewBox="0 0 67 67" fill="none" xmlns="http://www.w3.org/2000/svg">
<circle cx="33.2392" cy="33.2392" r="33.2392" fill="#36CBBA"/>
<path d="M31.9409 26.7369L35.3327 27.6027C35.4479 27.6288 35.551 27.6911 35.6259 27.7797C35.7008 27.8684 35.7434 27.9786 35.7471 28.0932C35.7471 28.3717 35.4914 28.6018 35.1771 28.6018H32.9521C32.7123 28.6011 32.4749 28.5559 32.2528 28.4686C31.9253 28.3354 31.5478 28.3656 31.2965 28.5896L30.109 29.6492C30.0541 29.6958 30.0067 29.7501 29.9684 29.8103C29.9194 29.8882 29.8868 29.9747 29.8724 30.0649C29.8581 30.1551 29.8623 30.2471 29.8848 30.3357C29.9074 30.4243 29.9478 30.5077 30.0038 30.5811C30.0597 30.6544 30.1301 30.7164 30.2109 30.7633C30.8685 31.1456 31.6048 31.3833 32.3678 31.4596V32.5312C32.3678 33.0641 32.8571 33.5 33.4534 33.5H34.539C35.1358 33.5 35.6252 33.0641 35.6252 32.5312V31.4656C37.6833 31.2477 39.2401 29.5887 38.9689 27.6512C38.772 26.2586 37.5651 25.1506 36.0589 24.7631L32.6671 23.8973C32.5519 23.8712 32.4489 23.8089 32.3739 23.7203C32.299 23.6316 32.2564 23.5214 32.2528 23.4068C32.2528 23.1283 32.5084 22.8982 32.8227 22.8982H35.0477C35.2883 22.8986 35.5266 22.9438 35.7496 23.0314C36.0764 23.1646 36.4545 23.1344 36.7058 22.9104L37.8933 21.8508C37.9464 21.8052 37.9921 21.7521 38.0289 21.6934C38.0783 21.6155 38.1113 21.5289 38.126 21.4386C38.1407 21.3483 38.1368 21.256 38.1145 21.1672C38.0922 21.0783 38.0519 20.9947 37.996 20.921C37.9401 20.8473 37.8697 20.7851 37.7889 20.7379C37.131 20.3556 36.3945 20.1179 35.6314 20.0416V18.9688C35.6314 18.4359 35.1427 18 34.5458 18H33.4602C32.8634 18 32.3746 18.4359 32.3746 18.9688V20.0344C30.319 20.2523 28.7591 21.9113 29.0303 23.8488C29.2266 25.2414 30.4372 26.3494 31.9409 26.7369ZM50.3286 37.8654C49.5911 37.2176 48.4412 37.26 47.6662 37.8654L41.8913 42.3398C41.1824 42.8908 40.3002 43.1899 39.3913 43.1875H31.9996C31.7344 43.1875 31.4801 43.0854 31.2925 42.9038C31.105 42.7221 30.9997 42.4757 30.9997 42.2188C30.9997 41.9618 31.105 41.7154 31.2925 41.5337C31.4801 41.3521 31.7344 41.25 31.9996 41.25H36.8927C37.8864 41.25 38.812 40.59 38.9707 39.6395C38.9903 39.5303 38.9999 39.4197 38.9995 39.3089C38.9985 38.7956 38.7873 38.3038 38.4124 37.9412C38.0374 37.5786 37.5293 37.375 36.9995 37.375H26.9997C25.3133 37.3754 23.6782 37.9374 22.3686 38.9668L19.4624 41.25H16C15.7348 41.25 15.4804 41.3521 15.2929 41.5337C15.1054 41.7154 15 41.9618 15 42.2188V48.0312C15 48.2882 15.1054 48.5346 15.2929 48.7163C15.4804 48.8979 15.7348 49 16 49H38.2976C39.2061 49.0007 40.0878 48.7017 40.7976 48.1523L50.2492 40.8262C50.4766 40.65 50.6615 40.4279 50.7911 40.1753C50.9206 39.9227 50.9917 39.6458 50.9993 39.3638C51.0069 39.0819 50.9509 38.8017 50.8352 38.5429C50.7194 38.2841 50.5462 38.0529 50.3286 37.8654Z" fill="white"/>
</svg>
