<svg width="67" height="67" viewBox="0 0 67 67" fill="none" xmlns="http://www.w3.org/2000/svg">
<circle cx="33.2392" cy="33.2392" r="33.2392" fill="#36CBBA"/>
<path d="M14.5812 18.355L31.3813 11.323C31.893 11.1098 32.4416 11 32.9956 11C33.5497 11 34.0983 11.1098 34.61 11.323L51.41 18.355C52.9763 19.0054 54 20.5437 54 22.2489C54 39.6969 43.9812 51.7567 34.6187 55.677C33.5863 56.1077 32.4225 56.1077 31.39 55.677C23.8913 52.539 12 41.701 12 22.2489C12 20.5437 13.0238 19.0054 14.5812 18.355ZM32.9912 50.2272L33 16.7376L17.6087 23.1806C17.8975 36.4886 24.7925 46.1311 32.9912 50.2272Z" fill="white"/>
</svg>
