<svg width="68" height="67" viewBox="0 0 68 67" fill="none" xmlns="http://www.w3.org/2000/svg">
<circle cx="33.8211" cy="33.2392" r="33.2392" fill="#36CBBA"/>
<path d="M53.1603 38.3293C53.3228 37.4479 53.3228 36.5477 53.1603 35.6662L54.7729 34.7348C54.9605 34.6285 55.0417 34.4097 54.9792 34.2034C54.5604 32.8531 53.8416 31.6278 52.904 30.6151C52.7602 30.4588 52.529 30.4213 52.3414 30.5276L50.7288 31.459C50.0474 30.8777 49.2661 30.4276 48.4223 30.1275V28.2646C48.4223 28.052 48.2723 27.8645 48.066 27.8207C46.6721 27.5082 45.2532 27.5207 43.9281 27.8207C43.7218 27.8645 43.5718 28.052 43.5718 28.2646V30.1275C42.7279 30.4276 41.9466 30.8777 41.2653 31.459L39.6526 30.5276C39.4713 30.4213 39.2338 30.4588 39.09 30.6151C38.1524 31.6278 37.4336 32.8531 37.0148 34.2034C36.9523 34.4097 37.0398 34.6285 37.2211 34.7348L38.8338 35.6662C38.6712 36.5477 38.6712 37.4479 38.8338 38.3293L37.2211 39.2608C37.0336 39.367 36.9523 39.5858 37.0148 39.7921C37.4336 41.1424 38.1524 42.3615 39.09 43.3804C39.2338 43.5367 39.4651 43.5742 39.6526 43.468L41.2653 42.5365C41.9466 43.1179 42.7279 43.568 43.5718 43.868V45.731C43.5718 45.9435 43.7218 46.1311 43.9281 46.1748C45.3219 46.4874 46.7408 46.4749 48.066 46.1748C48.2723 46.1311 48.4223 45.9435 48.4223 45.731V43.868C49.2661 43.568 50.0474 43.1179 50.7288 42.5365L52.3414 43.468C52.5227 43.5742 52.7602 43.5367 52.904 43.3804C53.8416 42.3677 54.5604 41.1424 54.9792 39.7921C55.0417 39.5858 54.9542 39.367 54.7729 39.2608L53.1603 38.3293ZM46.0033 40.0297C44.3281 40.0297 42.9717 38.6669 42.9717 36.9978C42.9717 35.3286 44.3343 33.9658 46.0033 33.9658C47.6722 33.9658 49.0348 35.3286 49.0348 36.9978C49.0348 38.6669 47.6784 40.0297 46.0033 40.0297ZM21.0006 30.9964C23.2071 30.9964 25.0011 29.2023 25.0011 26.9955C25.0011 24.7888 23.2071 22.9946 21.0006 22.9946C18.7942 22.9946 17.0002 24.7888 17.0002 26.9955C17.0002 29.2023 18.7942 30.9964 21.0006 30.9964ZM35.0021 32.9969C35.1209 32.9969 35.2334 32.9656 35.3521 32.9594C35.871 31.6028 36.6335 30.3275 37.6211 29.2585C38.0837 28.7584 38.74 28.4709 39.4276 28.4709C39.8589 28.4709 40.2839 28.5834 40.6527 28.8022L41.1465 29.0898C41.1965 29.0585 41.2465 29.0335 41.2965 29.0022C41.7341 28.0895 41.9966 27.0768 41.9966 26.0016C41.9966 22.1319 38.865 19 34.9959 19C31.1267 19 28.0014 22.1257 28.0014 25.9953C28.0014 29.8649 31.133 32.9969 35.0021 32.9969ZM41.5778 45.1558C41.434 45.0808 41.2903 44.9933 41.1528 44.912C40.6402 45.2121 40.1964 45.5247 39.4338 45.5247C38.7525 45.5247 38.0962 45.2371 37.6274 44.737C36.4835 43.4992 35.6084 41.9926 35.1146 40.386C34.4458 38.2293 36.671 37.2791 36.7273 37.2416C36.721 37.079 36.721 36.9165 36.7273 36.754L36.2335 36.4664C35.996 36.3289 35.7959 36.1538 35.6209 35.96C35.4147 35.9725 35.2146 35.9975 35.0084 35.9975C33.4707 35.9975 32.033 35.6225 30.7267 34.9973H30.2079C26.2262 34.9973 23.0008 38.223 23.0008 42.1989V43.9993C23.0008 45.656 24.3447 47 26.0012 47H41.9653C41.7341 46.6249 41.5778 46.1998 41.5778 45.731V45.1558ZM25.8199 34.1596C25.0948 33.4407 24.101 32.9969 23.0008 32.9969H19.0004C16.7939 32.9969 15 34.791 15 36.9978V38.9982C15 40.1047 15.8938 40.9987 17.0002 40.9987H21.1194C21.5132 38.0355 23.3009 35.5412 25.8199 34.1596Z" fill="white"/>
</svg>
